<svg xmlns="http://www.w3.org/2000/svg" xmlns:xlink="http://www.w3.org/1999/xlink" width="32" zoomAndPan="magnify" viewBox="0 0 24 12.749999" height="17" preserveAspectRatio="xMidYMid meet" version="1.0"><defs><clipPath id="214fa03809"><path d="M 0.253906 0.0390625 L 23 0.0390625 L 23 12.503906 L 0.253906 12.503906 Z M 0.253906 0.0390625 " clip-rule="nonzero"/></clipPath></defs><g clip-path="url(#214fa03809)"><path fill="#000000" d="M 0.328125 0.0390625 L 0.328125 3.175781 L 4.226562 6.296875 L 0.328125 9.40625 L 0.328125 12.542969 L 8.136719 6.285156 Z M 7.75 0.0390625 L 7.75 3.175781 L 11.648438 6.296875 L 7.75 9.40625 L 7.75 12.542969 L 15.558594 6.285156 Z M 15.171875 0.0390625 L 15.171875 3.175781 L 19.070312 6.296875 L 15.171875 9.40625 L 15.171875 12.542969 L 22.980469 6.285156 Z M 15.171875 0.0390625 " fill-opacity="1" fill-rule="nonzero"/><path fill="#000000" d="M 0.328125 0.0390625 L 0.328125 3.175781 L 4.226562 6.296875 L 0.328125 9.40625 L 0.328125 12.542969 L 8.136719 6.285156 Z M 7.75 0.0390625 L 7.75 3.175781 L 11.648438 6.296875 L 7.75 9.40625 L 7.75 12.542969 L 15.558594 6.285156 Z M 15.171875 0.0390625 L 15.171875 3.175781 L 19.070312 6.296875 L 15.171875 9.40625 L 15.171875 12.542969 L 22.980469 6.285156 Z M 15.171875 0.0390625 " fill-opacity="1" fill-rule="nonzero"/></g></svg>