<?xml version="1.0" encoding="utf-8"?>
<!-- Generator: Adobe Illustrator 27.3.1, SVG Export Plug-In . SVG Version: 6.00 Build 0)  -->
<svg version="1.1" id="tiktok-icon" xmlns="http://www.w3.org/2000/svg" xmlns:xlink="http://www.w3.org/1999/xlink" x="0px"
	 y="0px" viewBox="0 0 44.7 51.3" style="enable-background:new 0 0 44.7 51.3;" xml:space="preserve">
<style type="text/css">
	.st0{fill:#FFFFFF;}
</style>
<path class="st0" d="M44.7,12.2C38,12.2,32.5,6.7,32.5,0h-9l0.1,35.1c0,4.1-3.3,7.4-7.4,7.4s-7.4-3.3-7.4-7.4s3.3-7.4,7.4-7.4
	c0.8,0,1.5,0.1,2.2,0.3v-9c-0.7-0.1-1.4-0.2-2.2-0.2C7.3,18.8,0,26.1,0,35.1s7.3,16.2,16.2,16.2S32.4,44,32.4,35.1V17.3
	c3.4,2.4,7.8,4,12.3,4V12.2z"/>
</svg>
